<svg width="99" height="72" viewBox="0 0 99 72" fill="none" xmlns="http://www.w3.org/2000/svg">
<g id="Group 2141">
<ellipse id="Ellipse 58" cx="2.77213" cy="3.11688" rx="2.5" ry="2.62469" fill="#F62424"/>
<ellipse id="Ellipse 70" cx="2.77213" cy="46.9013" rx="2.5" ry="2.62469" fill="#F62424"/>
<ellipse id="Ellipse 60" cx="40.1622" cy="3.11688" rx="2.5" ry="2.62469" fill="#F62424"/>
<ellipse id="Ellipse 71" cx="40.1622" cy="46.9013" rx="2.5" ry="2.62469" fill="#F62424"/>
<ellipse id="Ellipse 62" cx="77.5522" cy="3.11688" rx="2.5" ry="2.62469" fill="#F62424"/>
<ellipse id="Ellipse 72" cx="77.5522" cy="46.9013" rx="2.5" ry="2.62469" fill="#F62424"/>
<ellipse id="Ellipse 64" cx="2.77213" cy="25.009" rx="2.5" ry="2.62469" fill="#F62424"/>
<ellipse id="Ellipse 73" cx="2.77213" cy="68.7932" rx="2.5" ry="2.62469" fill="#F62424"/>
<ellipse id="Ellipse 66" cx="40.1622" cy="25.009" rx="2.5" ry="2.62469" fill="#F62424"/>
<ellipse id="Ellipse 74" cx="40.1622" cy="68.7932" rx="2.5" ry="2.62469" fill="#F62424"/>
<ellipse id="Ellipse 68" cx="77.5522" cy="25.009" rx="2.5" ry="2.62469" fill="#F62424"/>
<ellipse id="Ellipse 75" cx="77.5522" cy="68.7932" rx="2.5" ry="2.62469" fill="#F62424"/>
<ellipse id="Ellipse 59" cx="21.4671" cy="3.11688" rx="2.5" ry="2.62469" fill="#F62424"/>
<ellipse id="Ellipse 76" cx="21.4671" cy="46.9013" rx="2.5" ry="2.62469" fill="#F62424"/>
<ellipse id="Ellipse 61" cx="58.8572" cy="3.11688" rx="2.5" ry="2.62469" fill="#F62424"/>
<ellipse id="Ellipse 77" cx="58.8572" cy="46.9013" rx="2.5" ry="2.62469" fill="#F62424"/>
<ellipse id="Ellipse 63" cx="96.2472" cy="3.11688" rx="2.5" ry="2.62469" fill="#F62424"/>
<ellipse id="Ellipse 78" cx="96.2472" cy="46.9013" rx="2.5" ry="2.62469" fill="#F62424"/>
<ellipse id="Ellipse 65" cx="21.4671" cy="25.009" rx="2.5" ry="2.62469" fill="#F62424"/>
<ellipse id="Ellipse 79" cx="21.4671" cy="68.7932" rx="2.5" ry="2.62469" fill="#F62424"/>
<ellipse id="Ellipse 67" cx="58.8572" cy="25.009" rx="2.5" ry="2.62469" fill="#F62424"/>
<ellipse id="Ellipse 80" cx="58.8572" cy="68.7932" rx="2.5" ry="2.62469" fill="#F62424"/>
<ellipse id="Ellipse 69" cx="96.2472" cy="25.009" rx="2.5" ry="2.62469" fill="#F62424"/>
<ellipse id="Ellipse 81" cx="96.2472" cy="68.7932" rx="2.5" ry="2.62469" fill="#F62424"/>
</g>
</svg>
