<svg width="54" height="50" viewBox="0 0 54 50" fill="none" xmlns="http://www.w3.org/2000/svg">
<g id="Group">
<path id="Vector" d="M33.266 1.86948L45.5366 23.0741C46.2057 24.2307 46.2057 25.6555 45.5366 26.8121L33.266 48.0167C32.5968 49.1733 31.36 49.8857 30.0215 49.8857H37.2123C38.5508 49.8857 39.7876 49.1733 40.4568 48.0167L52.7274 26.8121C53.3965 25.6555 53.3965 24.2307 52.7274 23.0741L40.4568 1.86948C39.7876 0.71291 38.5506 0.000488281 37.2123 0.000488281H30.0215C31.36 0.000488281 32.5968 0.71291 33.266 1.86948Z" fill="#39435A"/>
<path id="Vector_2" d="M33.266 1.86948L33.8127 2.81432C34.742 2.82788 35.7073 2.90404 36.6924 3.04853C38.6527 3.33624 40.4599 3.86066 42.0038 4.54329L40.4565 1.86948C39.7876 0.71291 38.5508 0.000488281 37.2123 0.000488281H30.0215C31.36 0.000488281 32.5968 0.71291 33.266 1.86948Z" fill="#2C374C"/>
<path id="Vector_3" d="M19.4236 1.86948L31.6942 23.0741C32.3634 24.2307 32.3634 25.6555 31.6942 26.8121L19.4236 48.0167C18.7545 49.1733 17.5176 49.8857 16.1791 49.8857H23.3699C24.7084 49.8857 25.9453 49.1733 26.6144 48.0167L38.885 26.8121C39.5542 25.6555 39.5542 24.2307 38.885 23.0741L26.6144 1.86948C25.9451 0.71291 24.7083 0.000488281 23.3697 0.000488281H16.1791C17.5175 0.000488281 18.7543 0.71291 19.4236 1.86948Z" fill="#39435A"/>
<path id="Vector_4" d="M19.9632 48.0162L7.69268 26.8116C7.0235 25.655 7.0235 24.2302 7.69268 23.0736L19.9632 1.86899C20.6324 0.712421 21.8692 0 23.2077 0H16.017C14.6784 0 13.4416 0.712421 12.7724 1.86899L0.501886 23.0736C-0.167295 24.2302 -0.167295 25.655 0.501886 26.8116L12.7724 48.0162C13.4416 49.1728 14.6784 49.8852 16.017 49.8852H23.2077C21.8692 49.8852 20.6324 49.1728 19.9632 48.0162Z" fill="#435F94"/>
<path id="Vector_5" d="M27.0524 48.0164L14.7819 26.8117C14.1127 25.6552 14.1127 24.2303 14.7819 23.0738L27.0524 1.86912C27.7216 0.71291 28.9584 0.000488281 30.297 0.000488281H23.1062C21.7676 0.000488281 20.5308 0.71291 19.8617 1.86948L7.59112 23.0741C6.92194 24.2307 6.92194 25.6555 7.59112 26.8121L19.8617 48.0167C20.5308 49.1733 21.7676 49.8857 23.1062 49.8857H30.297C28.9584 49.8854 27.7216 49.1729 27.0524 48.0164Z" fill="#377DFF"/>
<path id="Vector_6" d="M34.2788 48.0164L22.0083 26.8117C21.3391 25.6552 21.3391 24.2303 22.0083 23.0738L34.2788 1.86912C34.948 0.71291 36.1848 0.000488281 37.5234 0.000488281H30.3326C28.994 0.000488281 27.7572 0.71291 27.088 1.86948L14.8175 23.0741C14.1483 24.2307 14.1483 25.6555 14.8175 26.8121L27.088 48.0167C27.7572 49.1733 28.994 49.8857 30.3326 49.8857H37.5234C36.1848 49.8854 34.948 49.1729 34.2788 48.0164Z" fill="#37DBFF"/>
</g>
</svg>
