<svg width="100" height="73" viewBox="0 0 100 73" fill="none" xmlns="http://www.w3.org/2000/svg">
<g id="Group 2144">
<ellipse id="Ellipse 58" cx="2.53392" cy="3.87248" rx="2.5" ry="2.62469" transform="rotate(-0.745038 2.53392 3.87248)" fill="#EB00FF"/>
<ellipse id="Ellipse 70" cx="3.10325" cy="47.6532" rx="2.5" ry="2.62469" transform="rotate(-0.745038 3.10325 47.6532)" fill="#EB00FF"/>
<ellipse id="Ellipse 60" cx="39.9208" cy="3.38627" rx="2.5" ry="2.62469" transform="rotate(-0.745038 39.9208 3.38627)" fill="#EB00FF"/>
<ellipse id="Ellipse 71" cx="40.4901" cy="47.167" rx="2.5" ry="2.62469" transform="rotate(-0.745038 40.4901 47.167)" fill="#EB00FF"/>
<ellipse id="Ellipse 62" cx="77.3076" cy="2.90007" rx="2.5" ry="2.62469" transform="rotate(-0.745038 77.3076 2.90007)" fill="#EB00FF"/>
<ellipse id="Ellipse 72" cx="77.877" cy="46.6808" rx="2.5" ry="2.62469" transform="rotate(-0.745038 77.877 46.6808)" fill="#EB00FF"/>
<ellipse id="Ellipse 64" cx="2.81859" cy="25.7627" rx="2.5" ry="2.62469" transform="rotate(-0.745038 2.81859 25.7627)" fill="#EB00FF"/>
<ellipse id="Ellipse 73" cx="3.38791" cy="69.5431" rx="2.5" ry="2.62469" transform="rotate(-0.745038 3.38791 69.5431)" fill="#EB00FF"/>
<ellipse id="Ellipse 66" cx="40.2054" cy="25.2765" rx="2.5" ry="2.62469" transform="rotate(-0.745038 40.2054 25.2765)" fill="#EB00FF"/>
<ellipse id="Ellipse 74" cx="40.7748" cy="69.0571" rx="2.5" ry="2.62469" transform="rotate(-0.745038 40.7748 69.0571)" fill="#EB00FF"/>
<ellipse id="Ellipse 68" cx="77.5923" cy="24.7903" rx="2.5" ry="2.62469" transform="rotate(-0.745038 77.5923 24.7903)" fill="#EB00FF"/>
<ellipse id="Ellipse 75" cx="78.1616" cy="68.5708" rx="2.5" ry="2.62469" transform="rotate(-0.745038 78.1616 68.5708)" fill="#EB00FF"/>
<ellipse id="Ellipse 59" cx="21.2274" cy="3.62944" rx="2.5" ry="2.62469" transform="rotate(-0.745038 21.2274 3.62944)" fill="#EB00FF"/>
<ellipse id="Ellipse 76" cx="21.7967" cy="47.4101" rx="2.5" ry="2.62469" transform="rotate(-0.745038 21.7967 47.4101)" fill="#EB00FF"/>
<ellipse id="Ellipse 61" cx="58.6142" cy="3.14323" rx="2.5" ry="2.62469" transform="rotate(-0.745038 58.6142 3.14323)" fill="#EB00FF"/>
<ellipse id="Ellipse 77" cx="59.1835" cy="46.9239" rx="2.5" ry="2.62469" transform="rotate(-0.745038 59.1835 46.9239)" fill="#EB00FF"/>
<ellipse id="Ellipse 63" cx="96.0011" cy="2.65703" rx="2.5" ry="2.62469" transform="rotate(-0.745038 96.0011 2.65703)" fill="#EB00FF"/>
<ellipse id="Ellipse 78" cx="96.5704" cy="46.4378" rx="2.5" ry="2.62469" transform="rotate(-0.745038 96.5704 46.4378)" fill="#EB00FF"/>
<ellipse id="Ellipse 65" cx="21.512" cy="25.5196" rx="2.5" ry="2.62469" transform="rotate(-0.745038 21.512 25.5196)" fill="#EB00FF"/>
<ellipse id="Ellipse 79" cx="22.0813" cy="69.3001" rx="2.5" ry="2.62469" transform="rotate(-0.745038 22.0813 69.3001)" fill="#EB00FF"/>
<ellipse id="Ellipse 67" cx="58.8989" cy="25.0335" rx="2.5" ry="2.62469" transform="rotate(-0.745038 58.8989 25.0335)" fill="#EB00FF"/>
<ellipse id="Ellipse 80" cx="59.4682" cy="68.8139" rx="2.5" ry="2.62469" transform="rotate(-0.745038 59.4682 68.8139)" fill="#EB00FF"/>
<ellipse id="Ellipse 69" cx="96.2858" cy="24.5473" rx="2.5" ry="2.62469" transform="rotate(-0.745038 96.2858 24.5473)" fill="#EB00FF"/>
<ellipse id="Ellipse 81" cx="96.8551" cy="68.3277" rx="2.5" ry="2.62469" transform="rotate(-0.745038 96.8551 68.3277)" fill="#EB00FF"/>
</g>
</svg>
